:FULLY-SPECIFIED
:FORCE-ALL-JOINTS-BE-3DOF
:DEGREES
577
root 7.06751 16.2535 -3.48575 -168.47 73.6857 -174.71
lfemur -18.3942 3.84878 -18.1228
ltibia 48.6554 -0 0
lfoot -34.255 5.50869 0.0540057
ltoes -2.41644 0 0
rfemur -46.5411 -8.84913 10.5569
rtibia 42.112 -0 0
rfoot 14.0721 9.20744 -0.0806452
rtoes -30.2212 0 0
lowerback 6.4738 -0.856684 -2.99705
upperback 2.55114 -1.1883 3.37883
thorax -0.862652 -0.592088 5.27464
lowerneck -4.58439 -13.7926 -4.27396
upperneck 10.4364 -18.7436 5.71698
head 4.82153 -9.05294 1.24015
lclavicle 1.43606e-14 -2.20064e-14 4.65178e-30
lhumerus -38.3204 -17.1534 93.3905
lradius 53.8452 -0 0
lwrist 22.1554 0 0
lhand -21.7135 -4.8426 0.00378858
lfingers 7.12502 -0 0
lthumb 4.68585 25.0968 0.0058477
rclavicle 1.43606e-14 -2.20064e-14 4.65178e-30
rhumerus 26.7762 17.4111 -73.577
rradius 134.748 -0 0
rwrist -43.2083 0 0
rhand -26.1102 -20.39 0.00202212
rfingers 7.12502 -0 0
rthumb 0.439302 -50.3704 0.00198562
578
root 7.00498 16.2689 -3.47405 -167.899 74.4873 -174.043
lfemur -18.2108 3.82615 -18.1668
ltibia 48.2117 -0 0
lfoot -33.9968 6.07398 0.0580575
ltoes -2.16008 0 0
rfemur -46.5162 -9.17581 10.8699
rtibia 43.6181 -0 0
rfoot 13.9298 8.87963 -0.0622207
rtoes -29.2355 0 0
lowerback 6.31973 -0.853983 -3.17865
upperback 2.52139 -1.19883 3.29479
thorax -0.803458 -0.600931 5.28749
lowerneck -4.64395 -13.7737 -4.26651
upperneck 10.5783 -18.7342 5.7772
head 4.87944 -9.03902 1.24664
lclavicle 1.26991e-14 -1.94003e-14 4.60558e-30
lhumerus -37.263 -17.8988 92.5737
lradius 53.7317 -0 0
lwrist 22.4148 0 0
lhand -21.6236 -4.61911 0.00229721
lfingers 7.12502 -0 0
lthumb 4.77272 25.3198 0.00468372
rclavicle 1.26991e-14 -1.94003e-14 4.60558e-30
rhumerus 26.7339 17.4752 -73.4829
rradius 134.848 -0 0
rwrist -43.1262 0 0
rhand -26.0434 -20.2291 0.00196981
rfingers 7.12502 -0 0
rthumb 0.503891 -50.2093 0.00193369
579
root 6.94232 16.2821 -3.46251 -167.263 75.3063 -173.309
lfemur -18.0426 3.81063 -18.2124
ltibia 47.8045 -0 0
lfoot -33.7418 6.63798 0.0607747
ltoes -1.88603 0 0
rfemur -46.5003 -9.51169 11.1844
rtibia 45.175 -0 0
rfoot 13.7532 8.55913 -0.0433239
rtoes -28.2317 0 0
lowerback 6.16976 -0.851899 -3.35772
upperback 2.49426 -1.20871 3.21201
thorax -0.743684 -0.609195 5.30011
lowerneck -4.70414 -13.7531 -4.25728
upperneck 10.7226 -18.7232 5.83999
head 4.93836 -9.02395 1.25374
lclavicle 1.11999e-14 -1.67216e-14 4.43514e-30
lhumerus -36.1814 -18.6488 91.7487
lradius 53.6214 -0 0
lwrist 22.6848 0 0
lhand -21.5267 -4.3875 0.000786283
lfingers 7.12502 -0 0
lthumb 4.86632 25.5504 0.00345331
rclavicle 1.11999e-14 -1.67216e-14 4.43514e-30
rhumerus 26.6652 17.5333 -73.4049
rradius 134.935 -0 0
rwrist -43.0595 0 0
rhand -25.9805 -20.0719 0.00182897
rfingers 7.12502 -0 0
rthumb 0.564622 -50.0518 0.00179548
580
root 6.87981 16.2935 -3.45137 -166.541 76.1486 -172.488
lfemur -17.8884 3.80969 -18.2603
ltibia 47.4286 -0 0
lfoot -33.4922 7.20134 0.0620086
ltoes -1.59336 0 0
rfemur -46.4943 -9.85429 11.5028
rtibia 46.7588 -0 0
rfoot 13.5495 8.25768 -0.0251113
rtoes -27.2167 0 0
lowerback 6.02395 -0.851404 -3.53315
upperback 2.46856 -1.21934 3.13039
thorax -0.684518 -0.617578 5.31188
lowerneck -4.76559 -13.7298 -4.24517
upperneck 10.8685 -18.709 5.9034
head 4.99787 -9.007 1.26091
lclavicle 9.88485e-15 -1.40091e-14 4.1524e-30
lhumerus -35.0853 -19.399 90.925
lradius 53.5161 -0 0
lwrist 22.9587 0 0
lhand -21.421 -4.15051 -0.000666021
lfingers 7.12502 -0 0
lthumb 4.96846 25.7859 0.00221865
rclavicle 9.88485e-15 -1.40091e-14 4.1524e-30
rhumerus 26.5748 17.58 -73.3404
rradius 135.003 -0 0
rwrist -43.0124 0 0
rhand -25.922 -19.9205 0.00161244
rfingers 7.12502 -0 0
rthumb 0.621126 -49.9003 0.00158353
581
root 6.81776 16.3036 -3.4409 -165.703 77.0197 -171.554
lfemur -17.747 3.83079 -18.311
ltibia 47.0787 -0 0
lfoot -33.2502 7.76474 0.0616459
ltoes -1.28116 0 0
rfemur -46.4992 -10.2011 11.8278
rtibia 48.3453 -0 0
rfoot 13.3258 7.98703 -0.0085602
rtoes -26.1968 0 0
lowerback 5.88236 -0.853462 -3.70382
upperback 2.44311 -1.23212 3.04982
thorax -0.627148 -0.626777 5.32216
lowerneck -4.82895 -13.7025 -4.2291
upperneck 11.0157 -18.6899 5.96552
head 5.05755 -8.98744 1.26757
lclavicle 8.77584e-15 -1.13016e-14 3.77355e-30
lhumerus -33.9855 -20.1456 90.1128
lradius 53.4177 -0 0
lwrist 23.2299 0 0
lhand -21.3045 -3.91088 -0.00198952
lfingers 7.12502 -0 0
lthumb 5.08094 26.0233 0.00103495
rclavicle 8.77584e-15 -1.13016e-14 3.77355e-30
rhumerus 26.4676 17.6101 -73.2868
rradius 135.048 -0 0
rwrist -42.9892 0 0
rhand -25.8682 -19.7772 0.00133837
rfingers 7.12502 -0 0
rthumb 0.673038 -49.7567 0.00131551
582
root 6.75644 16.3129 -3.43133 -164.709 77.9249 -170.468
lfemur -17.6171 3.88142 -18.3649
ltibia 46.7493 -0 0
lfoot -33.0177 8.32886 0.0596094
ltoes -0.94852 0 0
rfemur -46.5161 -10.5496 12.1619
rtibia 49.9106 -0 0
rfoot 13.0891 7.75894 0.0055433
rtoes -25.1788 0 0
lowerback 5.74505 -0.859033 -3.86863
upperback 2.41674 -1.24846 2.9702
thorax -0.572762 -0.637488 5.33034
lowerneck -4.89487 -13.6702 -4.20796
upperneck 11.1634 -18.6642 6.02444
head 5.11699 -8.96455 1.27319
lclavicle 7.89481e-15 -8.63792e-15 3.31843e-30
lhumerus -32.8928 -20.8856 89.3227
lradius 53.3281 -0 0
lwrist 23.4919 0 0
lhand -21.1755 -3.67134 -0.00312034
lfingers 7.12502 -0 0
lthumb 5.20554 26.2599 -4.76903e-05
rclavicle 7.89481e-15 -8.63792e-15 3.31843e-30
rhumerus 26.3482 17.6185 -73.2416
rradius 135.065 -0 0
rwrist -42.9943 0 0
rhand -25.8196 -19.6441 0.00102913
rfingers 7.12502 -0 0
rthumb 0.719989 -49.6234 0.00101317
583
root 6.69616 16.3217 -3.42291 -163.501 78.8692 -169.176
lfemur -17.4974 3.96906 -18.4226
ltibia 46.4352 -0 0
lfoot -32.7971 8.89436 0.055859
ltoes -0.594509 0 0
rfemur -46.5458 -10.8972 12.5077
rtibia 51.4306 -0 0
rfoot 12.8465 7.58516 0.0165954
rtoes -24.1692 0 0
lowerback 5.61209 -0.869074 -4.02647
upperback 2.38826 -1.26976 2.89143
thorax -0.522547 -0.650403 5.33579
lowerneck -4.96399 -13.6317 -4.18067
upperneck 11.3113 -18.6303 6.07823
head 5.17575 -8.93758 1.27721
lclavicle 7.26366e-15 -6.05698e-15 2.80975e-30
lhumerus -31.8189 -21.6165 88.5659
lradius 53.2491 -0 0
lwrist 23.7381 0 0
lhand -21.032 -3.43464 -0.00399832
lfingers 7.12502 -0 0
lthumb 5.34409 26.4927 -0.000981599
rclavicle 7.26366e-15 -6.05698e-15 2.80975e-30
rhumerus 26.2215 17.5998 -73.202
rradius 135.049 -0 0
rwrist -43.0319 0 0
rhand -25.7765 -19.5234 0.000710028
rfingers 7.12502 -0 0
rthumb 0.761613 -49.5025 0.000701162
584
root 6.63718 16.3306 -3.41589 -161.994 79.8566 -167.595
lfemur -17.3868 4.10118 -18.4846
ltibia 46.131 -0 0
lfoot -32.5904 9.46193 0.0503917
ltoes -0.218214 0 0
rfemur -46.5894 -11.2414 12.8679
rtibia 52.8813 -0 0
rfoot 12.6052 7.4775 0.024156
rtoes -23.1746 0 0
lowerback 5.48356 -0.884535 -4.1762
upperback 2.35651 -1.29743 2.81341
thorax -0.477691 -0.666218 5.33787
lowerneck -5.03693 -13.5859 -4.14616
upperneck 11.4586 -18.5866 6.12501
head 5.23343 -8.90581 1.27907
lclavicle 6.90432e-15 -3.59761e-15 2.27216e-30
lhumerus -30.7759 -22.3366 87.8543
lradius 53.1826 -0 0
lwrist 23.9618 0 0
lhand -20.8721 -3.20351 -0.00456358
lfingers 7.12502 -0 0
lthumb 5.49836 26.7189 -0.00171791
rclavicle 6.90432e-15 -3.59761e-15 2.27216e-30
rhumerus 26.0922 17.5489 -73.1654
rradius 134.994 -0 0
rwrist -43.1062 0 0
rhand -25.7393 -19.4172 0.000407973
rfingers 7.12502 -0 0
rthumb 0.797543 -49.3961 0.000405643
585
root 6.57981 16.34 -3.41051 -160.054 80.8899 -165.594
lfemur -17.284 4.28527 -18.5513
ltibia 45.8315 -0 0
lfoot -32.3998 10.0322 0.0432436
ltoes 0.18128 -0 0
rfemur -46.648 -11.5796 13.245
rtibia 54.2388 -0 0
rfoot 12.3722 7.44772 0.0279134
rtoes -22.2016 0 0
lowerback 5.35952 -0.906366 -4.3167
upperback 2.32031 -1.33289 2.73604
thorax -0.43938 -0.685624 5.33598
lowerneck -5.11433 -13.5317 -4.10335
upperneck 11.6049 -18.5313 6.16287
head 5.2896 -8.86851 1.27824
lclavicle 6.83869e-15 -1.29864e-15 1.73116e-30
lhumerus -29.7766 -23.0447 87.2001
lradius 53.1306 -0 0
lwrist 24.1565 0 0
lhand -20.6941 -2.98067 -0.00475216
lfingers 7.12502 -0 0
lthumb 5.67017 26.9356 -0.00220206
rclavicle 6.83869e-15 -1.29864e-15 1.73116e-30
rhumerus 25.9652 17.4604 -73.1291
rradius 134.897 -0 0
rwrist -43.2217 0 0
rhand -25.7084 -19.3279 0.000149909
rfingers 7.12502 -0 0
rthumb 0.827412 -49.3066 0.000152836
586
root 6.52433 16.3504 -3.40704 -157.465 81.9698 -162.959
lfemur -17.1879 4.52881 -18.6233
ltibia 45.5312 -0 0
lfoot -32.2275 10.6059 0.0344908
ltoes 0.604888 -0 0
rfemur -46.7224 -11.9092 13.6417
rtibia 55.479 -0 0
rfoot 12.1547 7.50762 0.0276351
rtoes -21.2568 0 0
lowerback 5.24006 -0.935512 -4.44685
upperback 2.27851 -1.37755 2.65924
thorax -0.408801 -0.709315 5.32947
lowerneck -5.1968 -13.4679 -4.05116
upperneck 11.7495 -18.4627 6.18995
head 5.34384 -8.82494 1.27415
lclavicle 7.0887e-15 8.01079e-16 1.21188e-30
lhumerus -28.834 -23.7401 86.6164
lradius 53.0947 -0 0
lwrist 24.3157 0 0
lhand -20.4961 -2.76887 -0.00449082
lfingers 7.12502 -0 0
lthumb 5.86131 27.1401 -0.00236843
rclavicle 7.0887e-15 8.01079e-16 1.21188e-30
rhumerus 25.8453 17.3291 -73.0904
rradius 134.753 -0 0
rwrist -43.3825 0 0
rhand -25.6841 -19.2575 -3.88527e-05
rfingers 7.12502 -0 0
rthumb 0.850854 -49.236 -3.26136e-05
587
root 6.47104 16.3621 -3.4057 -153.847 83.0923 -159.314
lfemur -17.0974 4.8393 -18.7008
ltibia 45.2249 -0 0
lfoot -32.0754 11.1837 0.0242508
ltoes 1.05352 -0 0
rfemur -46.8136 -12.2275 14.0606
rtibia 56.5779 -0 0
rfoot 11.9597 7.66899 0.0231034
rtoes -20.3468 0 0
lowerback 5.12523 -0.972915 -4.56553
upperback 2.22995 -1.43284 2.58292
thorax -0.387136 -0.737986 5.31773
lowerneck -5.28494 -13.3933 -3.98856
upperneck 11.8919 -18.3791 6.20437
head 5.39572 -8.77436 1.26626
lclavicle 7.67626e-15 2.6627e-15 7.37681e-31
lhumerus -27.9619 -24.4226 86.1165
lradius 53.077 -0 0
lwrist 24.4327 0 0
lhand -20.2761 -2.57084 -0.00369084
lfingers 7.12502 -0 0
lthumb 6.07359 27.3294 -0.00213401
rclavicle 7.67626e-15 2.6627e-15 7.37681e-31
rhumerus 25.7371 17.1499 -73.0466
rradius 134.555 -0 0
rwrist -43.5929 0 0
rhand -25.6669 -19.2082 -0.000136457
rfingers 7.12502 -0 0
rthumb 0.867501 -49.1866 -0.000129398
588
root 6.42021 16.3757 -3.40675 -148.488 84.2433 -153.949
lfemur -17.0114 5.22421 -18.7845
ltibia 44.9073 -0 0
lfoot -31.9459 11.7662 0.012685
ltoes 1.5281 -0 0
rfemur -46.9227 -12.5319 14.5044
rtibia 57.5114 -0 0
rfoot 11.7942 7.94361 0.0140372
rtoes -19.4782 0 0
lowerback 5.01513 -1.01951 -4.67159
upperback 2.17347 -1.50018 2.50701
thorax -0.375568 -0.772334 5.30014
lowerneck -5.37936 -13.3069 -3.91448
upperneck 12.0315 -18.2789 6.20426
head 5.44482 -8.71605 1.25402
lclavicle 8.62327e-15 4.24738e-15 3.28671e-31
lhumerus -27.1745 -25.0921 85.7144
lradius 53.0793 -0 0
lwrist 24.5009 0 0
lhand -20.0323 -2.38931 -0.00224106
lfingers 7.12502 -0 0
lthumb 6.3088 27.5007 -0.00139126
rclavicle 8.62327e-15 4.24738e-15 3.28671e-31
rhumerus 25.6455 16.9174 -72.995
rradius 134.3 -0 0
rwrist -43.8572 0 0
rhand -25.657 -19.1822 -0.000126473
rfingers 7.12502 -0 0
rthumb 0.876987 -49.1605 -0.000121453
